<?xml version="1.0" encoding="UTF-8" standalone="no"?>
<!-- Uploaded to: SVG Repo, www.svgrepo.com, Generator: SVG Repo Mixer Tools -->

<svg
   fill="#000000"
   width="800px"
   height="800px"
   viewBox="0 -0.5 25 25"
   version="1.1"
   id="svg1"
   sodipodi:docname="github-svgrepo-com.svg"
   inkscape:version="1.4.2 (f4327f4, 2025-05-13)"
   xmlns:inkscape="http://www.inkscape.org/namespaces/inkscape"
   xmlns:sodipodi="http://sodipodi.sourceforge.net/DTD/sodipodi-0.dtd"
   xmlns="http://www.w3.org/2000/svg"
   xmlns:svg="http://www.w3.org/2000/svg">
  <defs
     id="defs1" />
  <sodipodi:namedview
     id="namedview1"
     pagecolor="#505050"
     bordercolor="#eeeeee"
     borderopacity="1"
     inkscape:showpageshadow="0"
     inkscape:pageopacity="0"
     inkscape:pagecheckerboard="0"
     inkscape:deskcolor="#505050"
     inkscape:zoom="0.3663697"
     inkscape:cx="387.58664"
     inkscape:cy="577.28573"
     inkscape:window-width="1920"
     inkscape:window-height="1009"
     inkscape:window-x="1912"
     inkscape:window-y="-8"
     inkscape:window-maximized="1"
     inkscape:current-layer="svg1" />
  <path
     d="m 12.301,0 h 0.093 c 2.242,0 4.34,0.613 6.137,1.68 L 18.476,1.649 c 1.871,1.094 3.386,2.609 4.449,4.422 l 0.031,0.058 c 1.04,1.769 1.654,3.896 1.654,6.166 0,5.406 -3.483,10 -8.327,11.658 l -0.087,0.026 c -0.063,0.02 -0.135,0.031 -0.209,0.031 -0.162,0 -0.312,-0.054 -0.433,-0.144 l 0.002,0.001 c -0.128,-0.115 -0.208,-0.281 -0.208,-0.466 v -0.014 0.001 c 0,-0.032 0.0027,-0.440667 0.008,-1.226 0.0053,-0.785333 0.008,-1.503333 0.008,-2.154 0.007,-0.075 0.011,-0.161 0.011,-0.249 0,-0.792 -0.323,-1.508 -0.844,-2.025 0.618,-0.061 1.176,-0.163 1.718,-0.305 l -0.076,0.017 c 0.573,-0.16 1.073,-0.373 1.537,-0.642 l -0.031,0.017 c 0.508,-0.28 0.938,-0.636 1.292,-1.058 l 0.006,-0.007 c 0.372,-0.476 0.663,-1.036 0.84,-1.645 l 0.009,-0.035 c 0.209,-0.683 0.329,-1.468 0.329,-2.281 0,-0.045 0,-0.091 -0.001,-0.136 v 0.007 c 0,-0.022 0.001,-0.047 0.001,-0.072 0,-1.248 -0.482,-2.383 -1.269,-3.23 l 0.003,0.003 c 0.168,-0.44 0.265,-0.948 0.265,-1.479 0,-0.649 -0.145,-1.263 -0.404,-1.814 L 18.761,5.1 C 18.646,5.078 18.515,5.065 18.38,5.065 c -0.334,0 -0.649,0.078 -0.929,0.216 l 0.012,-0.005 c -0.568,0.21 -1.054,0.448 -1.512,0.726 L 15.989,5.98 15.38,6.364 C 14.458,6.1 13.399,5.948 12.305,5.948 11.211,5.948 10.152,6.1 9.148,6.384 L 9.229,6.364 C 9.0583333,6.2466667 8.8313333,6.1023333 8.548,5.931 8.175,5.717 7.734,5.51 7.276,5.336 L 7.21,5.314 C 6.917,5.16 6.57,5.07 6.201,5.07 6.077,5.07 5.955,5.08 5.837,5.1 L 5.85,5.098 C 5.602,5.622 5.457,6.237 5.457,6.886 c 0,0.531 0.097,1.04 0.275,1.509 L 5.722,8.366 c -0.785,0.844 -1.266,1.979 -1.266,3.227 0,0.025 0,0.051 10e-4,0.076 v -0.004 c -10e-4,0.039 -10e-4,0.084 -10e-4,0.13 0,0.809 0.12,1.591 0.344,2.327 L 4.785,14.065 c 0.189,0.643 0.476,1.202 0.85,1.693 L 5.626,15.745 c 0.354,0.435 0.782,0.793 1.267,1.062 l 0.022,0.011 c 0.432,0.252 0.933,0.465 1.46,0.614 l 0.046,0.011 c 0.466,0.125 1.024,0.227 1.595,0.284 l 0.046,0.004 c -0.431,0.428 -0.718,1 -0.784,1.638 L 9.277,19.381 C 9.07,19.482 8.829,19.564 8.578,19.617 l -0.021,0.004 c -0.256,0.051 -0.549,0.08 -0.85,0.08 H 7.641 7.644 C 7.25,19.693 6.888,19.565 6.589,19.353 l 0.006,0.004 C 6.224,19.098 5.924,18.762 5.714,18.371 L 5.707,18.356 C 5.509,18.02 5.248,17.742 4.939,17.529 L 4.93,17.523 C 4.705,17.354 4.44,17.222 4.154,17.143 L 4.138,17.139 3.818,17.091 c -0.023,-0.002 -0.05,-0.003 -0.077,-0.003 -0.14,0 -0.273,0.028 -0.394,0.077 l 0.007,-0.003 c -0.085333,0.048 -0.112,0.109333 -0.08,0.184 0.039,0.086 0.087,0.16 0.145,0.225 L 3.418,17.57 c 0.061,0.072 0.13,0.135 0.205,0.19 l 0.003,0.002 0.112,0.08 c 0.283,0.148 0.516,0.354 0.693,0.603 l 0.004,0.006 c 0.191,0.237 0.359,0.505 0.494,0.792 l 0.01,0.024 0.16,0.368 c 0.135,0.402 0.38,0.738 0.7,0.981 l 0.005,0.004 c 0.3,0.234 0.662,0.402 1.057,0.478 L 6.877,21.1 c 0.33,0.064 0.714,0.104 1.106,0.112 H 7.99 c 0.045,0.002 0.097,0.002 0.15,0.002 0.261,0 0.517,-0.021 0.767,-0.062 L 8.88,21.156 9.248,21.092 c 0,0.406 0.00267,0.878667 0.008,1.418 0.00533,0.539333 0.008,0.830333 0.008,0.873 v 0.014 c 0,0.185 -0.08,0.351 -0.208,0.466 H 9.055 c -0.119,0.089 -0.268,0.143 -0.431,0.143 -0.075,0 -0.147,-0.011 -0.214,-0.032 l 0.005,0.001 C 3.486,22.286 0.006,17.692 0.006,12.285 0.006,10.017 0.618,7.892 1.687,6.066 L 1.655,6.124 C 2.749,4.253 4.264,2.738 6.077,1.675 L 6.135,1.644 C 7.874,0.61 9.97,-0.001 12.208,-0.001 h 0.098 -0.005 z"
     id="path1"
     style="fill:#ffffff"
     sodipodi:nodetypes="csccccsccsccsccscscccccccccsccsccsccscccccscccccsccsccsccsccccccccccccccscccccccccccscccccccccccccccccccscccsssccsccsccccsccc" />
</svg>
